<?xml version="1.0" encoding="utf-8"?>
<!-- Generator: Adobe Illustrator 16.0.3, SVG Export Plug-In . SVG Version: 6.00 Build 0)  -->
<!DOCTYPE svg PUBLIC "-//W3C//DTD SVG 1.1//EN" "http://www.w3.org/Graphics/SVG/1.1/DTD/svg11.dtd">
<svg version="1.1" id="Layer_1" xmlns="http://www.w3.org/2000/svg" xmlns:xlink="http://www.w3.org/1999/xlink" x="0px" y="0px"
	 width="500px" height="500px" viewBox="0 0 500 500" enable-background="new 0 0 500 500" xml:space="preserve">
<rect display="none" fill="#F0783C" width="500" height="500"/>
<g>
	<polygon fill="#FFFFFF" points="255.825,203.461 277.945,159.309 250.771,118.076 201.475,120.995 179.354,165.146 
		206.529,206.378 	"/>
	<path fill="#FFFFFF" d="M268.679,64.579C257.153,62.46,245.705,62,234.58,63.021l24.461,36.391l0.056-0.004l38.816,57.686
		l-30.546,62.482l-69.364,4.798l-38.816-57.686l0.051-0.104l-24.343-36.214c-5.448,10.615-9.464,22.189-11.733,34.528
		c-12.482,67.886,32.433,133.038,100.319,145.52s133.036-32.434,145.516-100.32C381.479,142.211,336.563,77.06,268.679,64.579z"/>
</g>
<g>
	<g>
		<path fill="#FFFFFF" d="M119.367,372.016h8.761l2.88,13.803c0.48,2.94,0.839,5.821,1.32,8.82h0.24
			c0.541-2.999,1.021-5.999,1.74-8.82l3.3-13.803h7.622l3.36,13.803c0.72,2.94,1.26,5.821,1.86,8.82h0.24
			c0.54-2.999,0.84-5.88,1.381-8.82l2.819-13.803h8.162l-7.141,29.764h-10.321l-2.7-11.88c-0.6-2.761-1.081-5.521-1.62-8.701h-0.24
			c-0.541,3.18-0.961,5.94-1.501,8.701l-2.639,11.88h-10.082L119.367,372.016z"/>
		<path fill="#FFFFFF" d="M179.224,371.298c7.5,0,14.46,5.698,14.46,15.6s-6.96,15.603-14.46,15.603
			c-7.562,0-14.522-5.701-14.522-15.603S171.662,371.298,179.224,371.298z M179.224,395.359c3.6,0,5.46-3.3,5.46-8.462
			c0-5.159-1.86-8.46-5.46-8.46c-3.661,0-5.461,3.301-5.461,8.46C173.762,392.06,175.563,395.359,179.224,395.359z"/>
		<path fill="#FFFFFF" d="M198.481,372.016h7.201l0.6,5.222h0.24c2.16-4.019,5.401-5.939,8.461-5.939c1.68,0,2.7,0.238,3.541,0.599
			l-1.44,7.622c-1.08-0.301-1.98-0.479-3.241-0.479c-2.22,0-4.98,1.439-6.541,5.46v17.28h-8.821V372.016z"/>
		<path fill="#FFFFFF" d="M221.377,359.716h8.581v24.122h0.24l9.421-11.822h9.6l-10.44,12.242L250,401.779h-9.542l-6.72-11.581
			l-3.781,4.262v7.319h-8.581V359.716z"/>
		<path fill="#FFFFFF" d="M255.009,392.84c2.699,2.04,5.159,3.119,7.68,3.119c2.64,0,3.778-0.96,3.778-2.521
			c0-1.98-3-2.88-6.06-4.08c-3.601-1.38-7.86-3.84-7.86-8.761c0-5.521,4.501-9.3,11.401-9.3c4.56,0,7.92,1.858,10.501,3.779
			l-3.96,5.281c-2.162-1.561-4.201-2.52-6.301-2.52c-2.281,0-3.36,0.84-3.36,2.339c0,1.921,2.76,2.642,5.82,3.78
			c3.779,1.381,8.041,3.481,8.041,8.941c0,5.4-4.262,9.601-12.241,9.601c-3.901,0-8.4-1.68-11.401-4.141L255.009,392.84z"/>
		<path fill="#FFFFFF" d="M279.229,359.716h8.819v10.321l-0.419,5.341c2.218-1.98,5.16-4.08,9.18-4.08
			c6.48,0,9.241,4.56,9.241,12.001v18.48h-8.822v-17.342c0-4.319-1.139-5.64-3.66-5.64c-2.219,0-3.599,1.02-5.52,2.881v20.101
			h-8.819V359.716z"/>
		<path fill="#FFFFFF" d="M325.094,371.298c7.502,0,14.463,5.698,14.463,15.6s-6.961,15.603-14.463,15.603
			c-7.561,0-14.519-5.701-14.519-15.603S317.533,371.298,325.094,371.298z M325.094,395.359c3.601,0,5.461-3.3,5.461-8.462
			c0-5.159-1.86-8.46-5.461-8.46c-3.659,0-5.459,3.301-5.459,8.46C319.635,392.06,321.435,395.359,325.094,395.359z"/>
		<path fill="#FFFFFF" d="M353.173,404.12v8.701h-8.821v-40.806h7.201l0.598,2.942h0.242c2.34-2.1,5.34-3.66,8.459-3.66
			c7.203,0,11.642,5.939,11.642,15.12c0,10.202-6.119,16.082-12.539,16.082c-2.581,0-4.98-1.141-7.082-3.121L353.173,404.12z
			 M357.913,395.3c3.059,0,5.52-2.642,5.52-8.761c0-5.341-1.618-8.042-5.161-8.042c-1.798,0-3.358,0.841-5.099,2.701v12.181
			C354.732,394.82,356.413,395.3,357.913,395.3z"/>
	</g>
	<g opacity="0.7">
		<g>
			<path fill="#FFFFFF" d="M261.372,422.931l4.663,0.009c2.353-7.907,5.931-11.856,10.259-11.856c3.451,0,5.354,2.062,5.354,3.555
				c0,0.695-0.449,1.144-1.194,1.144c-2.089,0-1.88-3.654-4.61-3.654c-2.978,0-4.587,3.605-6.575,10.796l4.165,0.008l-0.297,1.164
				h-4.229l-5.401,17.836c-2.688,8.808-5.424,14.38-12.19,14.38c-3.035,0-5.226-1.393-5.226-3.432c0-0.947,0.696-1.646,1.641-1.646
				c0.996,0,1.593,0.649,1.593,1.793c0,0.297-0.098,0.647-0.098,0.996c0,0.596,0.844,1.243,2.287,1.243
				c4.183,0,6.169-4.877,8.907-13.883l5.302-17.288h-4.627L261.372,422.931"/>
			<path fill="#FFFFFF" d="M279.376,438.576c-1.837,0-2.969-0.742-3.866-2.03c-1.251-1.796-1.485-3.281-1.485-5.468
				c0-2.966,0.546-4.567,2.069-6.129c0.938-1.016,1.953-1.25,3.008-1.25c1.993,0,5.156,2.733,5.156,7.066
				C284.258,434.944,282.344,438.576,279.376,438.576z M278.906,439.748c4.802,0,8.631-4.334,8.631-8.592
				c0-2.536-0.899-4.566-2.656-6.363c-1.173-1.172-3.318-2.266-5.467-2.266c-1.289,0-3.202,0.313-5.232,1.875
				c-2.308,1.797-3.359,4.296-3.359,6.288c0,2.77,0.35,4.216,2.146,6.363C274.609,439.006,277.032,439.748,278.906,439.748z"/>
			<path fill="#FFFFFF" d="M291.129,428.894c0-2.51-0.739-2.938-1.124-3.084c-0.287-0.105-0.914-0.233-1.023-0.275
				c-0.112-0.043-0.312-0.116-0.312-0.271v-0.236c0-0.156,0.105-0.301,0.312-0.351c0.366-0.089,2.186-0.886,3.866-1.992
				c0.295-0.194,0.819-0.391,0.819,0.312l0.194,2.695h0.157c1.173-1.796,3.005-3.397,4.684-3.397c1.33,0,1.993,0.821,1.993,1.719
				c0,1.133-0.938,1.914-1.636,1.914c-0.434,0-0.825-0.157-1.139-0.312c-0.312-0.196-0.781-0.314-1.288-0.314
				c-0.623,0-1.637,0.391-2.303,1.641c-0.233,0.431-0.389,1.133-0.389,1.25v8.2c0,1.209,0.273,1.601,1.094,1.601h1.832
				c0.235,0,0.272,0.117,0.272,0.353v0.702c0,0.234-0.037,0.351-0.194,0.351c-0.233,0-2.027-0.116-4.138-0.116
				c-2.422,0-4.06,0.116-4.294,0.116c-0.156,0-0.234-0.077-0.234-0.391v-0.662c0-0.275,0.078-0.353,0.43-0.353h1.521
				c0.586,0,0.856-0.234,0.856-0.742c0.042-1.289,0.042-2.656,0.042-4.687V428.894z"/>
			<path fill="#FFFFFF" d="M303.009,429.828c0,2.109,0.938,4.491,1.99,5.936c1.291,1.682,2.931,1.993,4.26,1.993
				c1.95,0,2.968-0.429,4.294-1.68c0.078-0.078,0.198-0.117,0.314,0l0.389,0.39c0.156,0.156,0.195,0.273,0,0.509
				c-1.13,1.288-3.633,2.772-6.288,2.772c-2.068,0-4.257-0.468-6.054-2.733c-1.443-1.914-1.757-3.555-1.757-5.312
				c0-4.567,3.203-9.176,8.358-9.176c4.063,0,5.31,2.343,5.31,3.163c-0.038,0.899-0.622,1.367-1.442,1.367
				c-0.901,0-1.564-0.507-2.15-1.563c-0.859-1.601-1.681-1.719-2.615-1.719C305.391,423.776,303.009,425.809,303.009,429.828z"/>
			<path fill="#FFFFFF" d="M317.85,427.723c0.74-2.891,2.383-4.023,4.102-4.023c2.537,0,3.004,2.578,3.004,3.476
				c0,0.353-0.312,0.548-1.051,0.548H317.85z M327.336,428.894c0.626,0,1.096-0.078,1.096-0.625c0-1.522-1.249-5.741-5.741-5.741
				c-1.95,0-3.906,0.352-5.583,2.07c-2.07,2.069-2.461,4.687-2.461,6.21c0,2.73,0.351,4.176,1.718,6.168
				c1.443,2.108,3.906,2.772,6.131,2.772c3.478,0,5.509-2.694,6.21-4.256c0.195-0.431,0.118-0.548,0-0.586l-0.51-0.273
				c-0.115-0.04-0.271,0.038-0.352,0.194c-0.661,1.29-2.34,2.656-4.724,2.656c-3.125,0-5.544-2.891-5.544-6.718
				c0-0.896,0.039-1.521,0.117-1.872H327.336z"/>
		</g>
		<g>
			<path fill="#FFFFFF" d="M199.295,438.616c-0.195-0.117-0.195-0.353-0.232-0.548l-0.665-3.71
				c-0.039-0.195,0.077-0.273,0.233-0.312l0.508-0.118c0.156-0.038,0.273,0.04,0.351,0.234l0.977,1.914
				c0.781,1.444,1.328,2.422,3.398,2.422c1.365,0,3.085-0.82,3.085-2.656c0-1.758-0.86-2.773-3.789-3.593
				c-2.305-0.664-4.607-1.872-4.607-4.957c0-2.695,2.536-4.766,5.466-4.766c1.873,0,2.89,0.468,3.594,0.82
				c0.584,0.273,0.662,0.469,0.702,0.704l0.585,2.732c0,0.156-0.079,0.273-0.273,0.352l-0.469,0.157
				c-0.157,0.038-0.232,0-0.353-0.195l-1.327-1.798c-0.468-0.742-1.209-1.523-2.733-1.523c-1.484,0-3.007,0.899-3.007,2.579
				c0,2.265,1.836,2.694,3.75,3.241c2.85,0.82,4.646,1.989,4.688,4.996c-0.041,3.164-2.618,5.155-5.938,5.155
				C201.326,439.748,199.764,438.968,199.295,438.616z"/>
			<path fill="#FFFFFF" d="M230.096,427.644c0,2.028,0,7.927,0.041,9.136c0.039,0.666,0.195,1.212,1.013,1.212h1.759
				c0.351,0,0.428,0.117,0.428,0.353v0.662c0,0.234-0.078,0.391-0.231,0.391c-0.275,0-1.994-0.116-4.415-0.116
				c-2.499,0-2.851,0.116-3.203,0.116c-0.195,0-0.273-0.156-0.273-0.391v-0.662c0-0.275,0.078-0.353,0.507-0.353h0.665
				c0.429,0,0.82-0.274,0.859-0.977c0.039-1.211,0.039-7.926,0.039-10.19v-2.46c0-2.773-0.039-6.328-0.117-7.343
				c-0.127-2.171-0.037-2.179-1.677-2.462c-0.413-0.07-0.906-0.126-1.057-0.156c-0.149-0.028-0.235-0.116-0.235-0.195v-0.312
				c0-0.116,0.117-0.194,0.352-0.274c1.733-0.584,3.135-1.173,4.571-2.265c0.337-0.254,0.585-0.312,0.819-0.312
				c0.271,0,0.353,0.195,0.313,0.703c-0.041,2.147-0.158,10.271-0.158,12.419V427.644z"/>
			<path fill="#FFFFFF" d="M236.75,427.723c0.743-2.891,2.381-4.023,4.099-4.023c2.539,0,3.008,2.578,3.008,3.476
				c0,0.353-0.313,0.548-1.055,0.548H236.75z M246.24,428.894c0.625,0,1.094-0.078,1.094-0.625c0-1.522-1.253-5.741-5.743-5.741
				c-1.953,0-3.904,0.352-5.583,2.07c-2.071,2.069-2.464,4.687-2.464,6.21c0,2.73,0.355,4.176,1.722,6.168
				c1.442,2.108,3.903,2.772,6.13,2.772c3.475,0,5.507-2.694,6.209-4.256c0.194-0.431,0.117-0.548,0-0.586l-0.508-0.273
				c-0.115-0.04-0.273,0.038-0.351,0.194c-0.665,1.29-2.342,2.656-4.725,2.656c-3.125,0-5.547-2.891-5.547-6.718
				c0-0.896,0.039-1.521,0.118-1.872H246.24z"/>
			<path fill="#FFFFFF" d="M249.91,438.616c-0.195-0.117-0.195-0.353-0.235-0.548l-0.664-3.71c-0.04-0.195,0.078-0.273,0.234-0.312
				l0.508-0.118c0.157-0.038,0.273,0.04,0.351,0.234l0.977,1.914c0.781,1.444,1.326,2.422,3.396,2.422
				c1.367,0,3.087-0.82,3.087-2.656c0-1.758-0.861-2.773-3.79-3.593c-2.302-0.664-4.607-1.872-4.607-4.957
				c0-2.695,2.539-4.766,5.467-4.766c1.874,0,2.891,0.468,3.594,0.82c0.586,0.273,0.661,0.469,0.703,0.704l0.585,2.732
				c0,0.156-0.078,0.273-0.273,0.352l-0.468,0.157c-0.16,0.038-0.234,0-0.352-0.195l-1.33-1.798
				c-0.467-0.742-1.209-1.523-2.734-1.523c-1.482,0-3.005,0.899-3.005,2.579c0,2.265,1.834,2.694,3.749,3.241
				c2.851,0.82,4.648,1.989,4.684,4.996c-0.035,3.164-2.614,5.155-5.935,5.155C251.94,439.748,250.378,438.968,249.91,438.616z"/>
			<path fill="#FFFFFF" d="M219.36,435.731c0,1.054-2.07,2.316-3.203,2.26c-1.169-0.06-2.031-0.802-2.031-2.248
				c0-3.241,3.827-3.832,5.234-4.817V435.731z M222.212,432.707v-6.127c0-1.054-0.039-1.954-0.859-2.814
				c-0.547-0.535-1.29-1.119-3.125-1.209c-1.758-0.087-3.125,0.497-4.766,1.392c-1.599,0.856-2.693,2.285-2.693,3.536
				c0,0.901,0.313,1.266,0.938,1.296c1.599,0.079,2.067-0.756,2.067-2.122c0-0.703-0.349-1.307,0.195-1.786
				c0.547-0.484,1.758-0.994,2.539-0.956c1.133,0.057,1.914,0.446,2.344,0.976c0.43,0.528,0.468,1.546,0.547,2.215v2.65
				c-0.625,0.515-2.657,1.353-4.412,2.044c-3.086,1.217-3.906,2.738-3.906,4.534c0,2.461,1.406,3.312,2.344,3.356
				c0.856,0.044,1.563,0.077,2.302-0.12c1.758-0.498,3.047-1.254,3.867-2.19l0.078,0.003c0.352,1.62,1.364,2.342,2.773,2.342
				c1.692,0,2.344-1.191,2.655-1.764c0.234-0.376,0.157-0.577,0.039-0.698l-0.391-0.332c-0.157-0.126-0.234-0.054-0.39,0.137
				c-0.193,0.264-0.352,0.548-0.975,0.518c-0.706-0.035-1.172-0.348-1.172-2.574V432.707z"/>
		</g>
	</g>
	<g opacity="0.7">
		<path fill="#FFFFFF" d="M164.536,420.099c-0.563-0.251-1.156-0.374-1.686-0.374c-1.25,0-1.938,0.812-1.938,2.592v1.656h2.999
			v2.843h-2.999v12.498h-3.593v-12.498h-2.062v-2.687l2.062-0.156v-1.593c0-3.188,1.469-5.498,5.093-5.498
			c1.094,0,2.124,0.248,2.812,0.53L164.536,420.099z"/>
		<path fill="#FFFFFF" d="M172.629,423.597c3.843,0,7.311,2.938,7.311,8.063c0,5.091-3.468,8.028-7.311,8.028
			c-3.811,0-7.279-2.938-7.279-8.028C165.351,426.534,168.818,423.597,172.629,423.597z M172.629,436.75
			c2.25,0,3.624-2.03,3.624-5.091c0-3.094-1.375-5.125-3.624-5.125c-2.249,0-3.592,2.031-3.592,5.125
			C169.037,434.72,170.381,436.75,172.629,436.75z"/>
		<path fill="#FFFFFF" d="M183.306,423.973h2.968l0.25,2.718h0.125c1.094-2,2.718-3.094,4.343-3.094c0.781,0,1.28,0.095,1.749,0.313
			l-0.625,3.125c-0.532-0.156-0.937-0.249-1.594-0.249c-1.218,0-2.687,0.843-3.625,3.155v9.373h-3.592V423.973z"/>
	</g>
</g>
</svg>
