<?xml version="1.0" encoding="utf-8"?>
<!-- Generator: Adobe Illustrator 16.0.3, SVG Export Plug-In . SVG Version: 6.00 Build 0)  -->
<!DOCTYPE svg PUBLIC "-//W3C//DTD SVG 1.1//EN" "http://www.w3.org/Graphics/SVG/1.1/DTD/svg11.dtd">
<svg version="1.1" id="Layer_1" xmlns="http://www.w3.org/2000/svg" xmlns:xlink="http://www.w3.org/1999/xlink" x="0px" y="0px"
	 width="500px" height="500px" viewBox="0 0 500 500" enable-background="new 0 0 500 500" xml:space="preserve">
<g>
	<polygon fill="#EF783B" points="269.453,281.857 313.605,193.729 259.365,111.43 160.969,117.255 116.817,205.38 171.058,287.68 	
		"/>
	<path fill="#EF783B" d="M295.108,4.649c-23.004-4.23-45.856-5.148-68.061-3.109l48.824,72.636l0.111-0.008l77.478,115.141
		l-60.969,124.714L154.04,323.6L76.563,208.46l0.101-0.209l-48.589-72.283c-10.874,21.188-18.89,44.291-23.419,68.919
		c-24.914,135.5,64.735,265.544,200.236,290.458c135.502,24.911,265.54-64.738,290.451-200.24
		C520.258,159.604,430.606,29.562,295.108,4.649z"/>
</g>
</svg>
